<?xml version="1.0" encoding="UTF-8"?>
<!DOCTYPE svg PUBLIC "-//W3C//DTD SVG 1.1//EN" "http://www.w3.org/Graphics/SVG/1.1/DTD/svg11.dtd">
<!-- Creator: CorelDRAW X8 -->
<svg xmlns="http://www.w3.org/2000/svg" xml:space="preserve" width="210mm" height="297mm" version="1.1" style="shape-rendering:geometricPrecision; text-rendering:geometricPrecision; image-rendering:optimizeQuality; fill-rule:evenodd; clip-rule:evenodd"
viewBox="0 0 21000 29700"
 xmlns:xlink="http://www.w3.org/1999/xlink">
 <defs>
  <style type="text/css">
   <![CDATA[
    .fil0 {fill:white}
   ]]>
  </style>
 </defs>
 <g id="Layer_x0020_1">
  <metadata id="CorelCorpID_0Corel-Layer"/>
  <g id="_2631703356016">
   <path class="fil0" d="M8635 6065c-828,0 -1500,672 -1500,1500 0,828 672,1500 1500,1500 828,0 1500,-672 1500,-1500 0,-828 -672,-1500 -1500,-1500zm-330 705c86,-4 113,-5 330,-5l0 0c217,0 244,1 330,5 85,4 143,17 194,37 53,20 97,48 142,92 44,45 72,89 92,142 20,51 33,109 37,194 4,85 5,113 5,330 0,217 -1,244 -5,330 -4,85 -17,143 -37,194 -20,53 -48,97 -92,142 -45,44 -89,72 -142,92 -51,20 -109,33 -194,37 -86,4 -113,5 -330,5 -217,0 -245,-1 -330,-5 -85,-4 -143,-17 -194,-37 -53,-20 -97,-48 -142,-92 -44,-45 -72,-89 -92,-142 -20,-51 -33,-109 -37,-194 -4,-86 -5,-113 -5,-330 0,-217 1,-245 5,-330 4,-85 17,-143 37,-194 20,-53 48,-97 92,-142 45,-44 89,-72 142,-92 51,-20 109,-33 194,-37z"/>
   <path class="fil0" d="M8563 6909c14,0 29,0 45,0l27 0c214,0 239,1 323,5 78,3 121,16 149,27 37,15 64,32 92,60 28,28 45,55 60,92 11,28 24,71 27,149 4,84 5,109 5,323 0,213 -1,239 -5,323 -3,78 -16,120 -27,149 -15,37 -32,63 -60,91 -28,28 -55,46 -92,60 -28,11 -71,24 -149,28 -84,4 -109,4 -323,4 -214,0 -239,0 -323,-4 -78,-4 -121,-17 -149,-28 -37,-14 -64,-32 -92,-60 -28,-28 -45,-54 -60,-92 -11,-28 -24,-70 -27,-148 -4,-84 -5,-110 -5,-323 0,-214 1,-239 5,-324 3,-78 16,-120 27,-148 15,-37 32,-64 60,-92 28,-28 55,-45 92,-60 28,-11 71,-24 149,-28 74,-3 102,-4 251,-4l0 0zm499 133c-53,0 -96,43 -96,96 0,53 43,96 96,96 53,0 96,-43 96,-96 0,-53 -43,-96 -96,-96l0 0zm-838 523c0,-227 184,-411 411,-411 227,0 411,184 411,411 0,227 -184,411 -411,411 -227,0 -411,-184 -411,-411z"/>
   <path class="fil0" d="M8635 7298c147,0 267,120 267,267 0,147 -120,267 -267,267 -147,0 -267,-120 -267,-267 0,-147 120,-267 267,-267z"/>
  </g>
 </g>
</svg>
