<?xml version="1.0" encoding="UTF-8"?>
<!DOCTYPE svg PUBLIC "-//W3C//DTD SVG 1.1//EN" "http://www.w3.org/Graphics/SVG/1.1/DTD/svg11.dtd">
<!-- Creator: CorelDRAW X8 -->
<svg xmlns="http://www.w3.org/2000/svg" xml:space="preserve" width="210mm" height="297mm" version="1.1" style="shape-rendering:geometricPrecision; text-rendering:geometricPrecision; image-rendering:optimizeQuality; fill-rule:evenodd; clip-rule:evenodd"
viewBox="0 0 21000 29700"
 xmlns:xlink="http://www.w3.org/1999/xlink">
 <defs>
  <style type="text/css">
   <![CDATA[
    .fil0 {fill:white}
   ]]>
  </style>
 </defs>
 <g id="Layer_x0020_1">
  <metadata id="CorelCorpID_0Corel-Layer"/>
  <g id="_2631707615728">
   <path class="fil0" d="M9865 8835c-828,0 -1500,672 -1500,1500 0,828 672,1500 1500,1500 828,0 1500,-672 1500,-1500 0,-828 -672,-1500 -1500,-1500zm625 984c69,19 123,75 142,146 33,128 33,395 33,395 0,0 0,267 -33,395 -19,71 -73,127 -142,146 -125,34 -625,34 -625,34 0,0 -500,0 -625,-34 -69,-19 -123,-75 -142,-146 -33,-128 -33,-395 -33,-395 0,0 0,-267 33,-395 19,-71 73,-127 142,-146 125,-34 625,-34 625,-34 0,0 500,0 625,34z"/>
   <polygon class="fil0" points="9715,10635 9715,10135 10115,10385 "/>
  </g>
 </g>
</svg>
