<?xml version="1.0" encoding="UTF-8"?>
<!DOCTYPE svg PUBLIC "-//W3C//DTD SVG 1.1//EN" "http://www.w3.org/Graphics/SVG/1.1/DTD/svg11.dtd">
<!-- Creator: CorelDRAW X8 -->
<svg xmlns="http://www.w3.org/2000/svg" xml:space="preserve" width="210mm" height="297mm" version="1.1" style="shape-rendering:geometricPrecision; text-rendering:geometricPrecision; image-rendering:optimizeQuality; fill-rule:evenodd; clip-rule:evenodd"
viewBox="0 0 21000 29700"
 xmlns:xlink="http://www.w3.org/1999/xlink"
 xmlns:serif="http://www.serif.com/">
 <defs>
  <style type="text/css">
   <![CDATA[
    .fil2 {fill:#222222;fill-opacity:0.501961}
    .fil1 {fill:#222222;fill-opacity:0.560784}
    .fil0 {fill:#222222;fill-opacity:0.749020}
   ]]>
  </style>
 </defs>
 <g id="Layer_x0020_1">
  <metadata id="CorelCorpID_0Corel-Layer"/>
  <g id="_2022889025168">
   <g>
    <path class="fil0" d="M-28 4785c2,0 4,0 8,0l0 0 -8 0z"/>
    <path class="fil1" d="M20957 5891c-3496,0 -3496,-1106 -6995,-1106 -3496,0 -3496,1106 -6995,1106 -3494,0 -3496,-1104 -6987,-1106l0 11025c3491,-2 3493,-1107 6987,-1107 3497,0 3497,1107 6995,1107 3497,0 3497,-1107 6995,-1107l9 0 0 -701 0 -8111 -9 0z"/>
    <path class="fil0" d="M-20 15810l0 0c-2,0 -4,0 -8,0l8 0z"/>
   </g>
   <g>
    <path class="fil2" d="M20968 4787c-3497,0 -3497,1107 -6995,1107 -3497,0 -3497,-1107 -6995,-1107 -3497,0 -3497,1107 -6995,1107l-7 0 0 8813 9 0c3496,0 3496,1107 6995,1107 3496,0 3496,-1107 6995,-1107 3496,0 3496,1107 6995,1107l-8 -1808 6 -9219z"/>
   </g>
  </g>
 </g>
</svg>
