<?xml version="1.0" encoding="UTF-8"?>
<!DOCTYPE svg PUBLIC "-//W3C//DTD SVG 1.1//EN" "http://www.w3.org/Graphics/SVG/1.1/DTD/svg11.dtd">
<!-- Creator: CorelDRAW X8 -->
<svg xmlns="http://www.w3.org/2000/svg" xml:space="preserve" width="210mm" height="297mm" version="1.1" style="shape-rendering:geometricPrecision; text-rendering:geometricPrecision; image-rendering:optimizeQuality; fill-rule:evenodd; clip-rule:evenodd"
viewBox="0 0 21000 29700"
 xmlns:xlink="http://www.w3.org/1999/xlink">
 <defs>
  <style type="text/css">
   <![CDATA[
    .fil0 {fill:white}
   ]]>
  </style>
 </defs>
 <g id="Layer_x0020_1">
  <metadata id="CorelCorpID_0Corel-Layer"/>
  <path class="fil0" d="M8359 11092c0,-833 -671,-1509 -1500,-1509 -828,0 -1500,676 -1500,1509 0,754 549,1378 1266,1491l0 -1055 -381 0 0 -436 381 0 0 -332c0,-378 224,-587 567,-587 164,0 335,29 335,29l0 371 -189 0c-186,0 -244,117 -244,236l0 283 416 0 -67 436 -349 0 0 1055c717,-113 1265,-737 1265,-1491z"/>
 </g>
</svg>
