<?xml version="1.0" encoding="UTF-8"?>
<!DOCTYPE svg PUBLIC "-//W3C//DTD SVG 1.1//EN" "http://www.w3.org/Graphics/SVG/1.1/DTD/svg11.dtd">
<!-- Creator: CorelDRAW X8 -->
<svg xmlns="http://www.w3.org/2000/svg" xml:space="preserve" width="210mm" height="297mm" version="1.1" style="shape-rendering:geometricPrecision; text-rendering:geometricPrecision; image-rendering:optimizeQuality; fill-rule:evenodd; clip-rule:evenodd"
viewBox="0 0 21000 29700"
 xmlns:xlink="http://www.w3.org/1999/xlink">
 <defs>
  <style type="text/css">
   <![CDATA[
    .fil0 {fill:white}
   ]]>
  </style>
 </defs>
 <g id="Layer_x0020_1">
  <metadata id="CorelCorpID_0Corel-Layer"/>
  <path class="fil0" d="M9054 5983c-828,0 -1500,671 -1500,1500 0,828 672,1500 1500,1500 828,0 1500,-672 1500,-1500 0,-829 -672,-1500 -1500,-1500zm-780 1242l340 0 0 1021 -340 0 0 -1021zm362 -316c-2,-100 -73,-176 -190,-176 -116,0 -192,76 -192,176 0,98 74,177 188,177l2 0c119,0 192,-79 192,-177zm813 292c223,0 391,146 391,460l0 585 -340 0 0 -546c0,-137 -49,-231 -172,-231 -94,0 -150,63 -175,124 -9,22 -11,53 -11,83l0 570 -340 0c0,0 5,-925 0,-1021l340 0 0 145c45,-70 126,-169 307,-169z"/>
 </g>
</svg>
