<?xml version="1.0" encoding="UTF-8"?>
<!DOCTYPE svg PUBLIC "-//W3C//DTD SVG 1.1//EN" "http://www.w3.org/Graphics/SVG/1.1/DTD/svg11.dtd">
<!-- Creator: CorelDRAW X8 -->
<svg xmlns="http://www.w3.org/2000/svg" xml:space="preserve" width="210mm" height="297mm" version="1.1" style="shape-rendering:geometricPrecision; text-rendering:geometricPrecision; image-rendering:optimizeQuality; fill-rule:evenodd; clip-rule:evenodd"
viewBox="0 0 21000 29700"
 xmlns:xlink="http://www.w3.org/1999/xlink">
 <defs>
  <style type="text/css">
   <![CDATA[
    .fil0 {fill:white}
   ]]>
  </style>
 </defs>
 <g id="Layer_x0020_1">
  <metadata id="CorelCorpID_0Corel-Layer"/>
  <path class="fil0" d="M6865 10065c-828,0 -1500,672 -1500,1500 0,828 672,1500 1500,1500 828,0 1500,-672 1500,-1500 0,-828 -672,-1500 -1500,-1500zm-42 1271l-3 -52c-9,-134 74,-257 205,-305 48,-17 130,-19 183,-4 21,6 61,27 89,47l52 34 57 -18c31,-9 73,-25 92,-36 18,-9 33,-14 33,-11 0,18 -38,79 -71,113 -44,48 -31,52 58,20 53,-18 54,-18 44,2 -6,11 -39,48 -74,82 -58,58 -61,65 -61,113 0,76 -36,232 -72,318 -66,161 -208,327 -349,411 -200,118 -465,147 -689,78 -74,-23 -202,-82 -202,-93 0,-3 39,-7 86,-8 99,-2 197,-30 281,-79l57 -34 -65 -22c-92,-32 -175,-105 -196,-173 -7,-23 -5,-24 54,-24l61 -1 -51 -24c-61,-31 -117,-83 -144,-136 -20,-38 -45,-134 -38,-142 2,-3 24,3 49,12 73,26 82,20 40,-24 -78,-81 -103,-201 -65,-314l18 -51 69 69c142,139 309,221 500,246l52 6z"/>
 </g>
</svg>
